<svg width="68" height="26" viewBox="0 0 68 26" fill="none" xmlns="http://www.w3.org/2000/svg">
<path d="M7.9766 20.521C6.63379 20.521 5.42707 20.2299 4.35644 19.6478C3.30396 19.0475 2.46017 18.1835 1.82505 17.0557C1.20808 15.9096 0.899597 14.509 0.899597 12.8536V8.32412C0.899597 5.85018 1.58915 3.95835 2.96826 2.64862C4.34737 1.3207 6.19828 0.656738 8.52099 0.656738C10.8437 0.656738 12.6311 1.28432 13.8832 2.53948C15.1353 3.77644 15.7613 5.44999 15.7613 7.56011V7.66925H12.5494V7.45097C12.5494 6.72334 12.4043 6.06847 12.1139 5.48637C11.8236 4.90427 11.379 4.4495 10.7802 4.12207C10.1814 3.77644 9.4283 3.60363 8.52099 3.60363C7.17817 3.60363 6.11662 4.02202 5.33634 4.85879C4.5742 5.67737 4.19313 6.81429 4.19313 8.26955V12.9082C4.19313 14.3452 4.5742 15.4913 5.33634 16.3462C6.11662 17.2012 7.19632 17.6287 8.57543 17.6287C9.95454 17.6287 10.9616 17.2558 11.5968 16.5099C12.2319 15.7641 12.5494 14.8091 12.5494 13.6449V13.3175H7.73163V10.5343H15.7613V20.139H12.7672V18.2562H12.3045C12.1593 18.5837 11.9325 18.9293 11.624 19.2931C11.3155 19.6387 10.8709 19.9298 10.2902 20.1663C9.72771 20.4027 8.9565 20.521 7.9766 20.521Z" fill="#0A0F0D"/>
<path d="M19.4667 25.5962V6.65967H22.5425V8.43326H23.0052C23.3137 7.86935 23.8037 7.36911 24.4751 6.93253C25.1646 6.49595 26.1445 6.27767 27.4148 6.27767C28.5035 6.27767 29.5107 6.55053 30.4361 7.09625C31.3797 7.62378 32.1328 8.40598 32.6953 9.44285C33.2578 10.4797 33.5391 11.7258 33.5391 13.181V13.6176C33.5391 15.0729 33.2578 16.3189 32.6953 17.3558C32.1328 18.3927 31.3888 19.184 30.4633 19.7297C29.5379 20.2572 28.5217 20.521 27.4148 20.521C26.5619 20.521 25.8451 20.4209 25.2644 20.2208C24.7019 20.0207 24.2392 19.757 23.8763 19.4295C23.5315 19.1021 23.2593 18.7747 23.0597 18.4472H22.597V25.5962H19.4667ZM26.4893 17.7924C27.6325 17.7924 28.567 17.4286 29.2929 16.7009C30.0369 15.9551 30.4089 14.9001 30.4089 13.5358V13.2629C30.4089 11.8804 30.0369 10.8253 29.2929 10.0977C28.5489 9.37008 27.6144 9.00627 26.4893 9.00627C25.3643 9.00627 24.4206 9.37008 23.6585 10.0977C22.9145 10.8253 22.5425 11.8804 22.5425 13.2629V13.5358C22.5425 14.9001 22.9145 15.9551 23.6585 16.7009C24.4206 17.4286 25.3643 17.7924 26.4893 17.7924Z" fill="#0A0F0D"/>
<path d="M36.8509 20.139V6.65967H39.9267V8.21498H40.3894C40.589 7.65106 40.9247 7.24177 41.3965 6.9871C41.8683 6.73243 42.4309 6.6051 43.0841 6.6051H44.7173V9.38828H43.0297C42.1224 9.38828 41.3875 9.63385 40.8249 10.125C40.2624 10.598 39.9811 11.3347 39.9811 12.3352V20.139H36.8509Z" fill="#0A0F0D"/>
<path d="M47.4834 20.139V6.65967H50.6137V20.139H47.4834ZM49.0349 4.94065C48.4724 4.94065 47.9825 4.75874 47.5651 4.39493C47.1659 4.01292 46.9663 3.51268 46.9663 2.8942C46.9663 2.27571 47.1659 1.78456 47.5651 1.42075C47.9825 1.03874 48.4724 0.847741 49.0349 0.847741C49.6338 0.847741 50.1237 1.03874 50.5048 1.42075C50.904 1.78456 51.1036 2.27571 51.1036 2.8942C51.1036 3.51268 50.904 4.01292 50.5048 4.39493C50.1237 4.75874 49.6338 4.94065 49.0349 4.94065Z" fill="#0A0F0D"/>
<path d="M53.9274 13.4539V13.0446C53.9274 11.6257 54.2086 10.416 54.7712 9.41556C55.3337 8.39688 56.0868 7.62378 57.0304 7.09625C57.974 6.55053 59.0083 6.27767 60.1334 6.27767C61.4036 6.27767 62.3653 6.50505 63.0186 6.95982C63.69 7.41458 64.18 7.90573 64.4885 8.43326H64.9512V6.65967H67.9997V22.7039C67.9997 23.5952 67.7457 24.2956 67.2376 24.8049C66.7295 25.3324 66.0399 25.5962 65.1689 25.5962H56.1321V22.8676H64.1074C64.6336 22.8676 64.8967 22.5947 64.8967 22.049V18.1471H64.434C64.2344 18.4563 63.9622 18.7747 63.6174 19.1021C63.2727 19.4114 62.819 19.6751 62.2565 19.8934C61.6939 20.1117 60.9862 20.2208 60.1334 20.2208C59.0083 20.2208 57.974 19.9571 57.0304 19.4295C56.0868 18.8838 55.3337 18.1107 54.7712 17.1102C54.2086 16.0915 53.9274 14.8728 53.9274 13.4539ZM61.0044 17.4649C62.1295 17.4649 63.064 17.1102 63.808 16.4008C64.552 15.6732 64.924 14.6636 64.924 13.372V13.0992C64.924 11.7894 64.552 10.7799 63.808 10.0704C63.0821 9.36099 62.1476 9.00627 61.0044 9.00627C59.8793 9.00627 58.9357 9.36099 58.1736 10.0704C57.4296 10.7799 57.0576 11.7894 57.0576 13.0992V13.372C57.0576 14.6636 57.4296 15.6732 58.1736 16.4008C58.9357 17.1102 59.8793 17.4649 61.0044 17.4649Z" fill="#0A0F0D"/>
</svg>
