<svg width="36" height="36" viewBox="0 0 36 36" fill="none" xmlns="http://www.w3.org/2000/svg">
<path fill-rule="evenodd" clip-rule="evenodd" d="M34.9252 20.8344C36.5282 17.6387 35.971 13.7797 33.53 11.1707L29.3837 6.73897L25.0751 2.46564C22.5386 -0.0501639 18.7053 -0.711495 15.4757 0.809517L9.98994 3.3931L4.6043 6.18031C1.43365 7.82121 -0.37833 11.2715 0.0666995 14.8205L0.822624 20.849L1.80268 26.8449C2.37966 30.3748 5.09309 33.1686 8.59772 33.841L14.5507 34.9832L20.542 35.9017C24.0693 36.4424 27.5582 34.7187 29.2792 31.5852L32.2024 26.2627L34.9252 20.8344ZM16.5613 29.5183C14.9479 29.5183 13.4963 29.1937 12.2104 28.5443C10.9445 27.8747 9.93016 26.9109 9.16741 25.6529C8.42663 24.3745 8.05524 22.8121 8.05524 20.9656V15.9131C8.05524 13.1535 8.88388 11.0433 10.5412 9.58229C12.1984 8.10104 14.4228 7.36042 17.2142 7.36042C20.0076 7.36042 22.1541 8.06046 23.6596 9.46055C25.1942 10.867 25.822 12.7574 25.9076 14.7072C25.9191 14.9696 25.689 15.1826 25.4067 15.1826H22.5674C22.2851 15.1826 22.0584 14.9695 22.0431 14.7073C22.0035 14.0291 21.8672 13.3686 21.5331 12.7477C21.1837 12.0984 20.6505 11.5911 19.9297 11.2259C19.2109 10.8403 18.3064 10.6476 17.2142 10.6476C15.6008 10.6476 14.3249 11.1143 13.3885 12.0477C12.472 12.9608 12.0127 14.229 12.0127 15.8522V21.0265C12.0127 22.6295 12.472 23.9078 13.3885 24.8615C14.0694 25.5546 14.9399 25.9959 16.0022 26.1852V18.8541C16.0022 18.5914 16.231 18.3785 16.5133 18.3785H25.4067C25.689 18.3785 25.9179 18.5914 25.9179 18.8541V29.0922L25.9079 29.3401C25.9079 29.4452 25.818 29.5303 25.7042 29.5303C24.1806 29.5303 22.6559 29.5273 21.1314 29.5243C19.6073 29.5213 18.0835 29.5183 16.5613 29.5183Z" fill="#0A0F0D"/>
</svg>
