<svg width="60" height="60" viewBox="0 0 60 60" fill="none" xmlns="http://www.w3.org/2000/svg">
<circle cx="30" cy="30" r="30" fill="white"/>
<path d="M37.1361 29.0121L26.7523 22.6736C26.5793 22.564 26.3796 22.504 26.1748 22.5002C25.9701 22.4964 25.7682 22.5489 25.5913 22.652C25.4118 22.7505 25.2621 22.8956 25.158 23.0719C25.054 23.2483 24.9994 23.4495 25 23.6543V36.3457C24.9994 36.5505 25.054 36.7517 25.158 36.9281C25.2621 37.1044 25.4118 37.2495 25.5913 37.348C25.7682 37.4511 25.9701 37.5036 26.1748 37.4998C26.3796 37.496 26.5793 37.436 26.7523 37.3264L37.1361 30.9879C37.3063 30.8852 37.4471 30.7403 37.5448 30.5672C37.6426 30.3942 37.6939 30.1988 37.6939 30C37.6939 29.8012 37.6426 29.6058 37.5448 29.4328C37.4471 29.2597 37.3063 29.1148 37.1361 29.0121Z" fill="#0A0F0D"/>
</svg>
