<svg width="26" height="24" viewBox="0 0 26 24" fill="none" xmlns="http://www.w3.org/2000/svg">
<path d="M12.5465 0.976482C12.7257 0.590616 13.2743 0.590616 13.4535 0.976482L16.5659 7.6784C16.6387 7.83528 16.7875 7.94336 16.9592 7.96417L24.2949 8.85324C24.7173 8.90443 24.8868 9.42615 24.5752 9.71582L19.1631 14.7469C19.0364 14.8647 18.9796 15.0395 19.0128 15.2093L20.4341 22.4607C20.516 22.8782 20.0722 23.2006 19.7004 22.9938L13.2431 19.4012C13.0919 19.3171 12.9081 19.3172 12.7569 19.4012L6.29963 22.9938C5.92785 23.2006 5.48405 22.8782 5.56588 22.4607L6.98717 15.2093C7.02044 15.0395 6.96362 14.8647 6.83694 14.7469L1.42482 9.71582C1.11322 9.42615 1.28273 8.90443 1.70509 8.85324L9.04078 7.96417C9.21249 7.94336 9.36125 7.83528 9.43411 7.6784L12.5465 0.976482Z" fill="#FFD569" stroke="#0A0F0D" stroke-width="0.8"/>
</svg>
