<svg width="16" height="16" viewBox="0 0 16 16" fill="none" xmlns="http://www.w3.org/2000/svg">
<g clip-path="url(#clip0_1_495)">
<path d="M8 11.26C6.23177 11.26 4.79902 9.84516 4.79902 8.09899V7.8994C4.79902 6.15403 6.23177 4.73835 8 4.73835C9.76823 4.73835 11.201 6.15403 11.201 7.8994V8.09899C11.201 9.84516 9.76823 11.26 8 11.26ZM8 0C3.58147 0 0 3.53679 0 7.90021V8.09979C0 12.4624 3.58147 16 8 16C12.4185 16 16 12.4632 16 8.09979V7.90021C16 3.53679 12.4177 0 8 0Z" fill="black"/>
</g>
<defs>
<clipPath id="clip0_1_495">
<rect width="16" height="16" fill="white"/>
</clipPath>
</defs>
</svg>
